<svg width="25" height="25" viewBox="0 0 30 30" fill="none" xmlns="http://www.w3.org/2000/svg">
<path d="M0.626242 5.57555C4.74362 9.06252 11.9683 15.1972 14.0918 17.11C14.3768 17.3681 14.6826 17.4994 15 17.4994C15.3167 17.4994 15.622 17.3694 15.9064 17.1124C18.0316 15.1978 25.2563 9.06252 29.3738 5.57555C29.6301 5.35887 29.6692 4.97801 29.4617 4.71311C28.9819 4.10098 28.2666 3.75 27.5 3.75H2.50001C1.73343 3.75 1.01806 4.10098 0.538351 4.71316C0.330812 4.97801 0.369894 5.35887 0.626242 5.57555Z" fill="#F5F5F5"/>
<path d="M29.6375 7.46519C29.4159 7.36206 29.1553 7.39804 28.971 7.55554C24.4049 11.4264 18.5773 16.388 16.7438 18.0401C15.7147 18.9691 14.2864 18.9691 13.255 18.0389C11.3006 16.278 4.75641 10.7147 1.02902 7.55548C0.843457 7.39798 0.582246 7.36324 0.36252 7.46513C0.141621 7.56773 0 7.78869 0 8.0322V23.75C0 25.1288 1.12119 26.25 2.50002 26.25H27.5C28.8788 26.25 30 25.1288 30 23.75V8.0322C30 7.78869 29.8584 7.56714 29.6375 7.46519Z" fill="#F5F5F5"/>
</svg>
