<svg width="25" height="25" viewBox="0 0 30 30" fill="none" xmlns="http://www.w3.org/2000/svg">
<g clip-path="url(#clip0)">
<path d="M29.3271 23.7088L24.694 19.0753C23.7712 18.1562 22.243 18.1841 21.2881 19.1394L18.9539 21.473C18.8065 21.3917 18.6538 21.3068 18.4933 21.2168C17.0194 20.4001 15.002 19.2807 12.8791 17.1562C10.7499 15.0273 9.62944 13.0068 8.81022 11.5319C8.72378 11.3756 8.64095 11.2249 8.55916 11.0819L10.1257 9.51764L10.8959 8.74652C11.8523 7.78983 11.8787 6.26207 10.958 5.34029L6.325 0.706228C5.40434 -0.214258 3.87546 -0.186333 2.91903 0.770352L1.61329 2.0836L1.64897 2.11902C1.21113 2.67769 0.845267 3.32203 0.573 4.01688C0.322021 4.67828 0.165763 5.30943 0.0943132 5.94188C-0.517448 11.0135 1.80014 15.6486 8.08978 21.9383C16.784 30.6319 23.7903 29.9752 24.0926 29.9431C24.7509 29.8644 25.3818 29.7071 26.023 29.4582C26.7118 29.1891 27.3557 28.8237 27.914 28.3868L27.9425 28.4122L29.2653 27.1169C30.2198 26.1603 30.2473 24.6321 29.3271 23.7088Z" fill="#F5F5F5"/>
</g>
<defs>
<clipPath id="clip0">
<rect width="30" height="30" fill="white"/>
</clipPath>
</defs>
</svg>
