<svg width="48" height="48" viewBox="0 0 48 48" fill="none" xmlns="http://www.w3.org/2000/svg">
<path d="M44.3197 40.7842C44.3197 40.7842 38.9921 31.6278 38.0365 29.9856C39.1238 29.6539 40.282 29.361 40.7633 28.5301C41.5653 27.1455 40.1376 24.8742 40.5125 23.3901C40.8987 21.8627 43.1783 20.541 43.1783 18.9884C43.1783 17.4758 40.8215 15.7087 40.4351 14.1902C40.0576 12.7064 41.481 10.4326 40.6764 9.04975C39.8717 7.66672 37.1917 7.78035 36.0884 6.71875C34.9533 5.62629 34.9568 2.95337 33.5877 2.22125C32.2129 1.48641 29.9787 2.97153 28.4523 2.61974C26.9434 2.27197 25.5952 0 24.0191 0C22.4195 0 19.8754 2.57719 19.4764 2.66994C17.9508 3.02458 15.7137 1.5431 14.3404 2.28105C12.9726 3.01563 12.981 5.68881 11.848 6.78309C10.7465 7.84663 8.06636 7.73793 7.2642 9.12252C6.46217 10.5068 7.88982 12.7776 7.51507 14.2625C7.13929 15.7511 4.78028 17.2595 4.78028 18.981C4.78028 20.5337 7.06561 21.8513 7.45411 23.3779C7.83171 24.8617 6.40834 27.1352 7.21296 28.5186C7.65101 29.2716 8.64489 29.5808 9.63748 29.8779C9.75331 29.9126 9.9724 30.0422 9.82401 30.2584C9.14495 31.4305 3.67938 40.8633 3.67938 40.8633C3.24457 41.6136 3.59766 42.2567 4.46377 42.2932L8.70327 42.47C9.56938 42.5064 10.6559 43.1358 11.1182 43.8691L13.3804 47.4588C13.8427 48.1921 14.5763 48.1784 15.0109 47.4282C15.0109 47.4282 21.3407 36.5002 21.3433 36.4971C21.4703 36.3487 21.5979 36.3792 21.659 36.431C22.3516 37.0207 23.317 37.609 24.1228 37.609C24.9131 37.609 25.6448 37.0552 26.3686 36.4377C26.4275 36.3875 26.5708 36.2846 26.6756 36.4981C26.6773 36.5015 33 47.3697 33 47.3697C33.4359 48.1189 34.1696 48.1317 34.6304 47.3975L36.8863 43.8034C37.3473 43.0696 38.4327 42.4378 39.2988 42.4L43.5379 42.2153C44.4036 42.1773 44.7555 41.5333 44.3197 40.7842ZM31.0254 30.9542C26.338 33.6812 20.7116 33.389 16.4141 30.6783C10.117 26.6448 8.04509 18.3009 11.8306 11.7673C15.6593 5.15827 24.0756 2.82625 30.7442 6.45816C30.7792 6.47722 30.8138 6.49694 30.8486 6.5164C30.898 6.54377 30.9473 6.57153 30.9965 6.59955C33.0537 7.78567 34.8377 9.50712 36.1152 11.7028C40.0193 18.4138 37.7362 27.05 31.0254 30.9542Z" fill="#8C8888"/>
<path d="M29.9534 8.57466C29.934 8.56337 29.9143 8.55286 29.8948 8.54171C26.3326 6.48001 21.7922 6.32928 17.987 8.54314C12.3402 11.8283 10.4188 19.0949 13.7039 24.7415C14.7064 26.4647 16.0801 27.8402 17.6649 28.8273C17.7997 28.9126 17.9361 28.9966 18.0754 29.0773C23.7282 32.3522 30.9909 30.4176 34.2657 24.765C37.5404 19.1121 35.6063 11.8496 29.9534 8.57466ZM31.3676 17.8157L29.3883 19.745C28.7752 20.3425 28.392 21.5218 28.5369 22.3656L29.0042 25.0898C29.1489 25.9336 28.6475 26.298 27.8897 25.8996L25.4431 24.6134C24.6853 24.215 23.4453 24.215 22.6875 24.6134L20.2411 25.8996C19.4833 26.298 18.9817 25.9336 19.1265 25.0898L19.5937 22.3656C19.7385 21.5218 19.3553 20.3425 18.7422 19.745L16.763 17.8157C16.1499 17.2183 16.3416 16.6286 17.1888 16.5053L19.9239 16.1079C20.7711 15.9848 21.7743 15.2559 22.1532 14.4883L23.3765 12.0098C23.7554 11.2421 24.3754 11.2421 24.7542 12.0098L25.9775 14.4883C26.3564 15.2559 27.3595 15.9848 28.2068 16.1079L30.942 16.5053C31.789 16.6286 31.9806 17.2183 31.3676 17.8157Z" fill="#8C8888"/>
</svg>
